<svg xmlns="http://www.w3.org/2000/svg" viewBox="0 0 512 512">
  <rect width="512" height="512" rx="104" fill="#5b3f2e"/>
  <path d="M256 122c-45-31-102-31-151-8v207c49-23 106-23 151 8 45-31 102-31 151-8V114c-49-23-106-23-151 8Z" fill="#fbf5e6" stroke="#e3aa5a" stroke-width="18" stroke-linejoin="round"/>
  <path d="M256 122v207M140 176c28-10 57-8 83 5M140 224c28-10 57-8 83 5M140 272c28-10 57-8 83 5M372 176c-28-10-57-8-83 5M372 224c-28-10-57-8-83 5M372 272c-28-10-57-8-83 5" fill="none" stroke="#243654" stroke-width="13" stroke-linecap="round"/>
  <path d="M256 367v55" stroke="#e3aa5a" stroke-width="18" stroke-linecap="round"/>
</svg>
